<svg viewBox="0 0 436 169" fill="none" xmlns="http://www.w3.org/2000/svg">
<path d="M427.281 124.148L427.124 125.075C427.095 125.207 427.06 125.372 427.016 125.588L427.008 125.629L427 125.67C426.832 126.537 426.663 127.344 426.489 128.15C426.412 128.459 426.354 128.732 426.32 128.889L426.318 128.899L426.301 128.979C426.286 129.05 426.276 129.097 426.265 129.147C426.259 129.176 426.255 129.196 426.251 129.21L426.249 129.22L426.247 129.229L426.239 129.261L426.231 129.292C425.94 130.513 425.651 131.585 425.388 132.49L424.096 135.737C416.531 154.759 401.543 163.339 388.513 158.688L347.516 141.597L347.359 141.532L347.199 141.474C338.45 138.284 330.675 130.457 325.588 119.538C320.531 108.683 318.45 95.3815 320.605 82.3297C320.606 82.3265 320.606 82.3234 320.607 82.3203L320.999 79.9887L322.12 73.3296L315.615 71.5187C264.1 57.1785 198.129 51.6506 121.793 73.2545L115.337 75.0816L116.437 81.7005L117.354 87.2181C117.354 87.2183 117.354 87.2184 117.354 87.2185C119.522 100.268 117.442 113.568 112.383 124.424C107.326 135.276 99.6104 143.077 90.9275 146.305L49.9387 159.13L49.7717 159.183L49.6072 159.243C41.0329 162.372 32.8333 161.153 26.1322 156.566C19.32 151.902 13.5066 143.339 11.0465 130.962L10.9666 130.56L10.8433 130.169C8.47973 122.673 1.26161 93.5743 20.0736 65.9964C38.8036 38.5386 85.2771 9.80255 197.074 7.65665C315.206 5.40183 373.759 27.8191 402.121 53.3373C430.009 78.4299 430.045 107.836 427.281 124.148Z" stroke="black" stroke-width="15"/>
</svg>
